<svg viewBox="0 -45 511.99981 511" xmlns="http://www.w3.org/2000/svg"><path d="m237.480469 143.171875c-.058594.101563-.09375.15625-.152344.253906.167969-.28125.253906-.421875.152344-.253906zm0 0"/><path d="m237.328125 143.425781c-.054687.089844-.113281.191407-.1875.3125.070313-.113281.113281-.191406.1875-.3125zm0 0"/><path d="m237.140625 143.738281c-.238281.398438-.460937.765625-.65625 1.09375.25-.417969.472656-.789062.65625-1.09375zm0 0"/><path d="m0 315.363281c2.042969 3 76.078125 111.875 71.367188 104.953125 119.714843-199.730468 154.714843-258.132812 163.507812-272.796875-.195312.324219.15625-.261719 1.609375-2.6875-.164063.277344-.328125.554688-.5.835938.875-1.464844 1.359375-2.269531 1.496094-2.496094-1.871094-3.042969-74.195313-120.804687-69.652344-113.414063zm0 0"/><path d="m324.761719.5h-139.742188c145.027344 239.53125 170.335938 281.339844 172.347657 284.660156-.003907-.007812-.003907-.011718-.011719-.019531.054687.09375 136.800781.234375 136.800781.234375zm32.085937 283.804688c.03125.050781.0625.09375.089844.144531-.03125-.050781-.054688-.089844-.089844-.144531zm-1.351562-2.234376c-.785156-1.300781-1.199219-1.980468 0 0zm0 0"/><path d="m106.464844 420.316406h331.84375c2.105468-3.003906 78.316406-111.878906 73.46875-104.953125h-341.664063c-1.820312 3.003907-67.859375 111.898438-63.648437 104.953125zm0 0"/></svg>