<svg viewBox="0 0 512 512" xmlns="http://www.w3.org/2000/svg"><path d="m241 270-150-90-91 60 151 90zm0 0"/><path d="m271 60 150 90 91-60-151-90zm0 0"/><path d="m0 90 91 60 150-90-90-60zm0 0"/><path d="m271 270 90 90 151-90-91-90zm0 0"/><path d="m256 85.984375-131.691406 79.015625 131.6875 79.011719 131.691406-79.015625zm0 0"/><path d="m241 306.0625-89.148438 59.429688-60.851562-36.507813v93.269531l150 89.742188zm0 0"/><path d="m271 312.421875v199.578125l150-89.730469v-63.277343l-64.644531 38.785156zm0 0"/></svg>