<svg viewBox="-61 0 512 512" xmlns="http://www.w3.org/2000/svg"><path d="m135 165c16.539062 0 30-13.460938 30-30 0-14.789062-10.765625-26.585938-24.933594-29.066406-13.886718 8.597656-25.535156 20.246094-34.132812 34.132812 2.480468 14.167969 14.277344 24.933594 29.066406 24.933594zm0 0"/><path d="m195 90c-6.3125 0-12.425781.789062-18.433594 1.863281 11.328125 10.914063 18.433594 26.132813 18.433594 43.136719 0 33.089844-26.910156 60-60 60-17.003906 0-32.222656-7.105469-43.136719-18.433594-1.074219 6.007813-1.863281 12.121094-1.863281 18.433594 0 57.890625 47.109375 105 105 105s105-47.109375 105-105-47.109375-105-105-105zm0 0"/><path d="m195 0c-107.519531 0-195 87.480469-195 195 0 101 152.796875 317 195 317s195-216 195-317c0-107.519531-87.480469-195-195-195zm0 330c-74.441406 0-135-60.558594-135-135s60.558594-135 135-135 135 60.558594 135 135-60.558594 135-135 135zm0 0"/></svg>