<svg viewBox="0 0 512 512" xmlns="http://www.w3.org/2000/svg"><path d="m420.324219 271h-328.648438c.933594 10.308594 2.863281 20.324219 5.613281 30h317.421876c2.75-9.675781 4.679687-19.691406 5.613281-30zm0 0"/><path d="m166 181c8.277344 0 15-6.722656 15-15s-6.722656-15-15-15-15 6.722656-15 15 6.722656 15 15 15zm0 0"/><path d="m346 181c8.277344 0 15-6.722656 15-15s-6.722656-15-15-15-15 6.722656-15 15 6.722656 15 15 15zm0 0"/><path d="m256 512c140.609375 0 256-115.390625 256-256s-115.390625-256-256-256-256 115.390625-256 256 115.390625 256 256 256zm90-391c24.8125 0 45 20.1875 45 45s-20.1875 45-45 45-45-20.1875-45-45 20.1875-45 45-45zm-180 0c24.8125 0 45 20.1875 45 45s-20.1875 45-45 45-45-20.1875-45-45 20.1875-45 45-45zm-105 120h390v15c0 107.519531-87.480469 195-195 195s-195-87.480469-195-195zm0 0"/><path d="m256 421c63.96875 0 119.453125-36.652344 146.820312-90h-293.640624c27.367187 53.347656 82.851562 90 146.820312 90zm0 0"/></svg>