<svg viewBox="0 0 512.00177 512" xmlns="http://www.w3.org/2000/svg"><path d="m255.40625 0c-143.269531 0-246.328125 67.191406-254.835938 184.347656-5.476562 75.199219 30.238282 108.832032 35 118.605469l58.871094-46.539063c-3.1875-7.308593-23.300781-34.976562-21.351562-70.132812 3.265625-58.917969 83.128906-122.589844 180.589844-122.722656 101.3125 0 182.3125 68.40625 182.402343 131.773437.171875 120.597657-163.605469 113.292969-165.152343 59.355469v-104.726562l-59.984376.089843v222.835938c-.613281 61.441406-36.402343 82.691406-69.546874 71.132812l-18.582032-6.472656c-1.035156 16.398437-1.90625 25.023437-1.847656 34.558594.074219 12.449219 1.097656 24.046875 12.710938 29.230469 15.832031 6.988281 31.867187 10.53125 47.640624 10.53125h.074219c58.179688-.089844 88.304688-40.976563 89.535157-121.535157v-50.414062l10.792968 2.121093c142.953125 29.976563 225.875-52.40625 230.144532-149.597656 5.097656-116.0625-136.414063-192.441406-256.460938-192.441406zm0 0"/></svg>