<svg viewBox="-61 1 511 511.99922" xmlns="http://www.w3.org/2000/svg"><path d="m75.5 0c-41.351562 0-75 33.648438-75 75v362c0 41.351562 33.648438 75 75 75s75-33.648438 75-75v-103.171875l105 148.917969c25.410156 32.988281 72.488281 38.832031 105.175781 13.667968 33.121094-25.515624 38.753907-72.59375 13.679688-105.175781l-94.46875-134.859375 95.011719-135.617187c25.308593-32.863281 19.167968-79.886719-13.679688-105.191407-32.117188-24.753906-79.367188-19.847656-105.175781 13.683594l-105.542969 149.871094v-104.125c0-41.351562-33.648438-75-75-75zm0 0"/></svg>