<svg viewBox="0 0 512 512" xmlns="http://www.w3.org/2000/svg"><path d="m406 180c-57.890625 0-106 47.109375-106 105v227h212v-227c0-57.890625-48.109375-105-106-105zm0 0"/><path d="m406 150c41.351562 0 76-33.648438 76-75s-34.648438-75-76-75-76 33.648438-76 75 34.648438 75 76 75zm0 0"/><path d="m255 90c0-24.8125-20.1875-45-45-45s-45 20.1875-45 45 20.1875 45 45 45 45-20.1875 45-45zm0 0"/><path d="m90 105c0-16.539062-13.460938-30-30-30s-30 13.460938-30 30 13.460938 30 30 30 30-13.460938 30-30zm0 0"/><path d="m135 240v196h135v-151c0-20.886719 5.171875-40.4375 13.675781-58.109375-6.238281-35.097656-36.8125-61.890625-73.675781-61.890625-41.351562 0-75 33.648438-75 75zm0 0"/><path d="m105 240c0-14.71875 3.101562-28.703125 8.59375-41.433594-9.808594-19.800781-30.035156-33.566406-53.59375-33.566406-33.089844 0-60 26.910156-60 60v151h105zm0 0"/></svg>