<svg viewBox="0 0 512 512" xmlns="http://www.w3.org/2000/svg"><path d="m181.757812 11.09375 179.242188 172.191406v-160.398437c-32.066406-14.566407-67.546875-22.886719-105-22.886719-25.824219 0-50.734375 3.925781-74.242188 11.09375zm0 0"/><path d="m391 39.0625v320.9375h98.113281c14.566407-32.066406 22.886719-67.546875 22.886719-105 0-91.003906-49.070312-170.804688-121-215.9375zm0 0"/><path d="m472.9375 390h-321.9375v99.113281c32.066406 14.566407 67.546875 22.886719 105 22.886719 91.003906 0 171.804688-50.070312 216.9375-122zm0 0"/><path d="m121 230.621094-106.890625 107.285156c19.167969 55.523438 57.921875 104.308594 106.890625 135.03125zm0 0"/><path d="m219.09375 88.535156-68.261719-65.570312c-88.226562 40.152344-150.832031 128.941406-150.832031 232.035156 0 16.949219 1.742188 33.488281 4.914062 49.523438zm0 0"/></svg>