<svg viewBox="0 0 512 512" xmlns="http://www.w3.org/2000/svg"><path d="m422 165c0-90.980469-74.019531-165-165-165h-92c-90.980469 0-165 74.019531-165 165v182c0 90.980469 74.019531 165 165 165h182c90.980469 0 165-74.019531 165-165v-167h-75c-8.277344 0-15-6.722656-15-15zm-287-60h152c24.851562 0 45 20.148438 45 45s-20.148438 45-45 45h-152c-24.851562 0-45-20.148438-45-45s20.148438-45 45-45zm242 302h-242c-24.851562 0-45-20.148438-45-45s20.148438-45 45-45h242c24.851562 0 45 20.148438 45 45s-20.148438 45-45 45zm0 0"/></svg>