<svg viewBox="-46 1 511 511.99998" xmlns="http://www.w3.org/2000/svg"><path d="m2.066406 89.417969c10.609375 111.222656 89.613282 400.542969 198.964844 422.273437l1.511719.308594 1.535156-.015625c53.273437-.410156 149.746094-190.75 158.097656-210.292969l1.070313-.730468c42.640625-1.359376 38.710937-3.320313 57.242187-6.839844v-57.15625c-3.027343-.703125-131.445312 35.585937-143.003906-111.886719.203125-24.480469 8.632813-53.097656 32.910156-55.179687 22.992188.742187 31.574219 24.089843 32.179688 49.75.609375 25.664062-6.765625 53.640624-15.683594 63.648437 16.957031 23.828125 43.417969 31.007813 71.097656 26.398437l1.800781-.300781c14.398438-36.296875 19.5-61.496093 20.699219-96.296875-1.199219-70.796875-39.898437-113.097656-104.097656-113.097656-83.964844 2.597656-124.03125 68.785156-112.796875 151.796875l.09375-.035156c.007812.058593.003906.113281.011719.167969 7.449219 54.097656 35.144531 108.671874 85.792969 132.066406-27.140626 50.238281-56.410157 122.609375-83.992188 148.597656-58.226562-66.433594-97.6875-179.992188-122.882812-346.839844l-1.933594-12.757812h-80.183594zm0 0"/></svg>