<svg viewBox="0 0 512 512.00001" xmlns="http://www.w3.org/2000/svg"><path d="m29.816406 44.996094v193.769531c-1.519531-.832031-3.4375-1.515625-5-2.394531-6.484375-5.066406-14.910156-4.453125-20.445312 1.277344-5.523438 5.683593-5.84375 13.882812-.777344 19.992187 23.003906 27.917969 41.300781 49.824219 76.566406 65.136719l10.445313 4.527344-1.566407 11.277343c-9.175781 66.496094 7.949219 173.417969 66.574219 173.417969l24.195313-.027344c16.539062 0 30-13.464844 30-30v-135.992187l60.996094 10v-55l-50.085938-24.546875c-7.132812-3.558594-15.113281-5.449219-23.082031-5.449219h-68.625c-21.085938-1.589844-41.910157-5.550781-69.195313-17.363281v-208.625c0-8.273438 6.722656-14.996094 15-14.996094h361.976563c8.277343 0 15 6.722656 15 14.996094v208.621094c-26.976563 11.6875-48.785157 15.753906-70.195313 17.367187h-50.796875c-16.539062 0-30 13.460937-30 30v180.988281c0 16.535156 13.460938 30 30 30l23.859375.011719c59.003906 0 75.871094-108.304687 66.910156-173.402344l-1.550781-11.277343 11.429688-4.523438c34.859375-15.148438 53.917969-37.835938 71.980469-59.777344 1.402343-3.019531 15.527343-13.234375 3.632812-25.472656-5.539062-5.703125-12.878906-6.683594-20.40625-1.171875-1.566406.878906-3.339844 1.566406-4.863281 2.40625v-193.769531c0-24.8125-20.1875-44.996094-45-44.996094h-361.976563c-24.8125 0-45 20.183594-45 44.996094zm0 0"/><path d="m90.003906 181.503906c0 32.796875 26.6875 59.484375 59.484375 59.484375s59.484375-26.6875 59.484375-59.484375-26.6875-59.484375-59.484375-59.484375-59.484375 26.6875-59.484375 59.484375zm0 0"/><path d="m361.765625 240.988281c32.546875 0 59.03125-26.484375 59.03125-59.03125s-26.484375-59.03125-59.03125-59.03125-59.03125 26.484375-59.03125 59.03125 26.484375 59.03125 59.03125 59.03125zm0 0"/></svg>