<svg viewBox="0 -24 511.9991 511" xmlns="http://www.w3.org/2000/svg"><path d="m456.082031 196.128906c-41.449219-33.320312-66.582031-28.136718-80.382812-17.988281-24.792969 18.308594-26.757813 65.425781-5.007813 120.027344 16.773438 42.121093 57.25 104.714843 101.308594 93.488281 13.035156-3.324219 23.40625-11.90625 28.429688-23.535156 25.734374-59.523438 7.5-130.234375-44.347657-171.992188zm0 0"/><path d="m260.59375 173.542969 14.414062-6.636719-7.03125-14.234375c-43.660156-88.535156-119.535156-120.085937-174.488281-120.085937-67.328125 0-86.242187 34.507812-90.824219 49.359374-9.695312 31.460938 7.558594 67.84375 43.980469 92.667969 60.875 41.519531 145.847657 27.832031 213.949219-1.070312zm0 0"/><path d="m330.648438 193.753906 8.976562-28.542968-28.238281 9.898437c-64.078125 22.425781-95.433594 76.382813-83.878907 144.339844 16.121094 94.871093 105.613282 176.722656 202.195313 122.738281l25.585937-14.296875-26.554687-12.390625c-64.296875-30.007812-119.292969-154.355469-98.085937-221.746094zm0 0"/><path d="m291.570312 161.136719 14.765626-7.101563c48.347656-23.289062 77.140624-57.414062 81.066406-96.125 3.53125-35.457031-14.308594-48.816406-22.144532-52.917968-16.945312-8.832032-39.03125-4.453126-57.675781 11.4375-33.9375 28.886718-41.875 76.03125-21.78125 129.375zm0 0"/><path d="m203.121094 313.0625-5.535156-43.789062-22.292969 38.09375c-16.621094 28.414062-31.121094 58.835937-43.074219 90.398437-4.335938 11.40625 1.1875 23.476563 12.875 28.0625 30.40625 11.847656 62.363281 21.339844 94.980469 28.191406l42.898437 9.007813-28.382812-33.394532c-29.042969-34.183593-45.871094-72.320312-51.46875-116.570312zm0 0"/></svg>