<svg viewBox="-30 0 511 511.99913" xmlns="http://www.w3.org/2000/svg"><path d="m93.390625 155.570312c-.953125-11.726562-7.578125-20.636718-17.296875-23.261718-9.65625-2.621094-19.695312 1.570312-26.21875 10.964844-55.632812 80.121093-54.3125 151.4375-43.394531 197.175781 23.136719 97 111.351562 171.550781 216.875 171.550781 158.09375 0 239.359375-144.785156 226.035156-317.386719-6.054687-78.394531-34.28125-171.976562-81.96875-189.972656-31.847656-11.957031-82.90625-.367187-130.171875 29.679687-37.679688 23.929688-124.058594 94.855469-143.390625 241.074219-9.597656-28.179687-6.328125-72.695312-2.066406-102.019531 1.214843-8.382812 1.945312-13.453125 1.597656-17.804688zm0 0"/></svg>