<svg viewBox="-61 1 511 511.99996" xmlns="http://www.w3.org/2000/svg"><path d="m183.972656 22.246094c-1.046875-14.710938-4.964844-22.246094-21.984375-22.246094-26.421875 0-78.800781 15.503906-100.082031 27.523438-9.386719 5.328124-17.636719 16.386718-11.664062 25.207031 2.476562 3.722656 107.742187 177.660156 115.949218 186.21875 5.753906 6.011719 13.027344 7.941406 19.375 6.390625 6.476563-1.585938 11.589844-6.832032 13.699219-14.042969 3.121094-10.664063-15-206.03125-15.292969-209.050781zm0 0"/><path d="m159.652344 299.578125c-.570313-9.027344-4.777344-15.210937-12.484375-18.40625 0 0-100.332031-35.335937-117.863281-41.546875-12.546876-4.378906-20.671876 5.835938-23.929688 18.714844-5.3359375 21.058594-7.078125 59.324218-1.1875 82.730468 2.425781 9.59375 10.414062 15.597657 19.929688 13.496094 81.097656-18.28125 104.324218-28.613281 122.609374-33.648437 8.484376-2.726563 13.558594-11.109375 12.925782-21.339844zm0 0"/><path d="m387.769531 211.074219c-8.046875-20.578125-27.347656-49.125-43.058593-63.648438-8.136719-7.558593-21.027344-11.746093-28.371094-3.296875-11.84375 14.847656-64.933594 88.675782-79.320313 110.976563-10.101562 15.65625 5.613281 34.851562 23.933594 31.046875 4.601563-1.007813 111.472656-43.613282 117.65625-45.238282 13.585937-3.539062 14.324219-16.652343 9.160156-29.839843zm0 0"/><path d="m377.457031 382.871094-111.066406-54.640625c-19.316406-6.441407-34.5 15.550781-25.03125 31.082031 10.347656 17.019531 64.917969 110.683594 66.3125 112.464844 10.316406 13.1875 19.734375 11.269531 32.585937.566406 16.253907-13.554688 36.859376-39.757812 45.929688-58.429688 7.367188-15.15625 6.644531-24.816406-8.730469-31.042968zm0 0"/><path d="m106.21875 488.332031c18.3125 10.207031 54.382812 23.667969 73.367188 23.667969 12.453124 0 16.007812-5.433594 16.035156-17.835938.03125-9.597656.046875-64.738281 0-125.691406-.027344-17.210937-20.800782-27.144531-33.210938-12.410156 0 0-65.132812 93.035156-71.375 101.550781-9.386718 12.742188 1.300782 22.960938 15.183594 30.71875zm0 0"/></svg>