<svg viewBox="0 -45 511.99936 511" xmlns="http://www.w3.org/2000/svg"><path d="m0 103.636719 6.960938 25.859375.527343-.351563c14.195313-9.40625 25.421875-16.835937 38.035157-16.835937 11.269531 0 22.054687 6.054687 30.085937 17.980468 43.699219 64.839844 77.496094 290.316407 159.269531 290.316407 80.707032 0 283.398438-245.835938 276.972656-356.765625-3.195312-55.105469-42.667968-63.339844-65.921874-63.339844-44.773438 0-89.402344 27.648438-111.925782 80.527344 38.441406-6.164063 65.683594 15.382812 62.753906 54.84375-3.382812 44.820312-78.570312 160.632812-113.558593 160.632812-59.8125 0-87.796875-201.671875-107.808594-262.890625-5.011719-15.28125-19.503906-24.777343-37.847656-24.777343-13.023438 0-26.503907 4.996093-37.976563 14.082031-26.433594 20.921875-53.382812 42.445312-79.539062 64.148437zm0 0"/></svg>