<svg viewBox="0 -46 512 512" xmlns="http://www.w3.org/2000/svg"><path d="m225 307.5c0-16.730469 0-190.582031 0-187.5 0-16.5 14.5-30 31-30s31 13.5 31 30v58.199219l31.199219 15.601562 43.800781-14.703125v-74.097656c0-56.429688-47.078125-105-106-105-58.941406 0-106 48.5625-106 105 0 3.078125 0 198.078125 0 195 0 16.5-13.5 30-30 30s-30-13.5-30-30c0-6.441406 0-78.964844 0-75h-90c0 9.503906 0 85.960938 0 82.5 0 62.101562 50.398438 112.5 112.5 112.5 62.617188 0 112.5-51.125 112.5-112.5zm0 0"/><path d="m422 300c0 16.5-13.5 30-30 30s-30-13.5-30-30c0-5.203125 0-94.566406 0-89.101562l-46.199219 15.300781-28.800781-14.398438c0 4.476563 0 100.226563 0 95.699219 0 61.382812 49.890625 112.5 112.5 112.5 62.101562 0 112.5-50.398438 112.5-112.5 0-14.941406 0-86.648438 0-82.5h-90c0 5.367188 0 78.078125 0 75zm0 0"/></svg>