<svg viewBox="-61 0 512 512" xmlns="http://www.w3.org/2000/svg"><path d="m210 152h-15c-24.851562 0-45 20.148438-45 45s20.148438 45 45 45h17.179688c.058593.003906.105468.027344.164062.027344 51.90625 1.339844 94.445312 47.449218 86.761719 102.789062-6.035157 43.605469-45.972657 77.183594-92.871094 77.183594h-26.234375c-49.628906 0-90-40.371094-90-90v-287c0-24.8125-20.1875-45-45-45s-45 20.1875-45 45v287c0 99.257812 80.742188 180 180 180h23.746094c93.867187 0 173.289062-67.207031 184.730468-156.3125 14.039063-109.367188-71.128906-203.6875-178.476562-203.6875zm0 0"/></svg>